<svg xmlns="http://www.w3.org/2000/svg" width="47" height="47" viewBox="0 0 165.3 165.4"><path d="m75.3 165.3c-10.6-1.1-19.4-3.6-29-8.2-8.8-4.3-15.5-9.1-22.2-15.9C11.3 128.2 3.7 113.1 0.8 95l-0.7-4.7 0-7.8 0-7.8 0.7-4.3c1.5-9.1 3.6-15.9 7.5-23.9 4.1-8.5 8.4-14.5 15-21.4 7.3-7.5 14-12.4 23-16.7 8.3-4 14.9-6.1 24.2-7.6l4.3-0.7 7.8 0 7.8 0 4.7 0.7C108 2.9 119.5 7.5 129.9 14.7c4.3 3 6.9 5.2 11.2 9.5 6.8 6.7 11.6 13.4 15.9 22.2 4 8.2 6.2 15 7.6 24.1l0.7 4.4 0 7.8 0 7.8-0.7 4.7c-1.9 12.1-6.4 23.8-12.9 33.5-13 19.5-33.5 32.5-56.6 36.1-5.1 0.8-15.2 1.1-19.9 0.7zM56.5 123c0.8-0.3 5.2-4.5 13.7-13l12.5-12.5 12.7 12.7 12.7 12.7 1.4 0.4c0.8 0.2 1.9 0.3 2.6 0.1l1.2-0.2 4.9-4.9 4.9-4.9 0.2-1.2c0.1-0.7 0.1-1.8-0.1-2.6l-0.4-1.4-12.7-12.7-12.7-12.7 12.7-12.7 12.7-12.7 0.4-1.4 0.4-1.4-0.4-1.4-0.4-1.4-4.6-4.6-4.6-4.6-1.4-0.4-1.4-0.4-1.4 0.4-1.4 0.4-12.7 12.7-12.7 12.7-12.7-12.7-12.7-12.7-1.2-0.4c-0.7-0.2-1.8-0.3-2.6-0.2l-1.4 0.2-4.9 4.9-4.9 4.9-0.2 1.4c-0.1 0.8-0.1 1.9 0.2 2.6l0.4 1.2 12.7 12.7 12.7 12.7-12.7 12.7-12.7 12.7-0.4 1.4-0.4 1.4 0.4 1.4 0.4 1.4 4.3 4.3c5.3 5.4 6.8 6.2 9.5 5z" fill="#c94040"/></svg>