<svg xmlns="http://www.w3.org/2000/svg" width="100" height="100" viewBox="0 0 90 90" stroke-linejoin="round"><circle cx="45" cy="45" r="45" fill="rgb(109,190,69)"/><path d="M56.4 36C55.7 32.7 53.8 30.4 50.8 29.1 49.2 28.4 47.4 28 45.3 28 41.5 28 38.3 29.5 35.8 32.4 33.3 35.3 32.1 39.7 32.1 45.6 32.1 51.5 33.4 55.7 36.1 58.1 38.8 60.6 41.9 61.8 45.3 61.8 48.7 61.8 51.4 60.8 53.6 58.9 55.7 56.9 57 54.4 57.5 51.3L46.4 51.3 46.4 43.2 66.4 43.2 66.4 69 59.8 69 58.8 63C56.9 65.3 55.1 66.9 53.6 67.8 50.9 69.4 47.7 70.3 43.8 70.3 37.5 70.3 32.2 68.1 28.2 63.7 24 59.2 21.8 53.2 21.8 45.5 21.8 37.7 24 31.5 28.3 26.8 32.5 22.1 38.2 19.8 45.2 19.8 51.3 19.8 56.2 21.3 59.9 24.4 63.6 27.5 65.7 31.4 66.3 36L56.4 36Z" fill="white"/></svg>