<?xml version="1.0" encoding="UTF-8"?>
<svg xmlns="http://www.w3.org/2000/svg" width="250px" height="250px" viewBox="0 0 125 125">
	<title>NYCS Bullet, Standard Set - G Local</title>
	<circle cx="62.5" cy="62.5" r="50" fill="#6CBE45"/>
	<path d="M84.1,50.7c-3.933-10-11.133-15-21.6-15c-7.333,0-13.183,2.55-17.55,7.65S38.4,54.7,38.4,62.1c0,7.533,2.1,13.817,6.3,18.85c4.2,5.033,10.133,7.55,17.8,7.55c5.2,0,9.5-1.7,12.9-5.1v3.9H84V59.5H62.6v8.8h12.3c-0.067,3.2-1.317,5.833-3.75,7.9c-2.433,2.067-5.317,3.1-8.65,3.1c-4.533,0-7.967-1.683-10.3-5.05c-2.333-3.367-3.5-7.417-3.5-12.15s1.167-8.8,3.5-12.2c2.333-3.4,5.767-5.1,10.3-5.1c6.533,0,10.633,3.2,12.3,9.6L84.1,50.7z" fill="#FFF"/>
</svg>
