<svg xmlns="http://www.w3.org/2000/svg" viewBox="0 0 1000 1000"><style>.a{fill:#fff;}</style><g class="a"><g class="a"><path d="M888.4 229.2c-21.3-29-50.9-62.9-83.4-95.4 -32.5-32.5-66.4-62.2-95.4-83.4 -49.4-36.2-73.3-40.4-87-40.4H147.8c-42.2 0-76.6 34.3-76.6 76.6v826.9c0 42.2 34.3 76.6 76.6 76.6h704.4c42.2 0 76.6-34.3 76.6-76.6V316.3C928.8 302.5 924.6 278.6 888.4 229.2zM761.6 177.1c29.4 29.4 52.4 55.9 69.5 77.9H683.8V107.7C705.7 124.7 732.3 147.7 761.6 177.1L761.6 177.1zM867.5 913.4c0 8.3-7 15.3-15.3 15.3H147.8c-8.3 0-15.3-7-15.3-15.3V86.6c0-8.3 7-15.3 15.3-15.3 0 0 474.6 0 474.7 0v214.4c0 16.9 13.7 30.6 30.6 30.6h214.4V913.4z" class="a"/><path d="M714.4 806.3H285.6c-16.9 0-30.6-13.7-30.6-30.6s13.7-30.6 30.6-30.6h428.8c16.9 0 30.6 13.7 30.6 30.6S731.3 806.3 714.4 806.3z" class="a"/><path d="M714.4 683.8H285.6c-16.9 0-30.6-13.7-30.6-30.6s13.7-30.6 30.6-30.6h428.8c16.9 0 30.6 13.7 30.6 30.6S731.3 683.8 714.4 683.8z" class="a"/><path d="M714.4 561.3H285.6c-16.9 0-30.6-13.7-30.6-30.6s13.7-30.6 30.6-30.6h428.8c16.9 0 30.6 13.7 30.6 30.6S731.3 561.3 714.4 561.3z" class="a"/></g></g></svg>