<?xml version="1.0" encoding="utf-8"?>
<svg xmlns="http://www.w3.org/2000/svg" xmlns:xlink="http://www.w3.org/1999/xlink" style="margin: auto; background: none; display: block; shape-rendering: auto;" width="201px" height="201px" viewBox="0 0 100 100" preserveAspectRatio="xMidYMid">
<defs>
  <pattern id="ldio-okamqada9as-pattern" patternUnits="userSpaceOnUse" x="0" y="0" width="100" height="100">
    <g>
      <g transform="rotate(20 50 50) scale(1.2)">
        <rect x="-20" y="-10" width="10" height="120" fill="rgba(170, 170, 170, 0)"></rect>
        <rect x="-10" y="-10" width="10" height="120" fill="rgba(0, 0, 0, 0.27774193548387094)"></rect>
        <rect x="0" y="-10" width="10" height="120" fill="rgba(170, 170, 170, 0)"></rect>
        <rect x="10" y="-10" width="10" height="120" fill="rgba(0, 0, 0, 0.27774193548387094)"></rect>
        <rect x="20" y="-10" width="10" height="120" fill="rgba(170, 170, 170, 0)"></rect>
        <rect x="30" y="-10" width="10" height="120" fill="rgba(0, 0, 0, 0.27774193548387094)"></rect>
        <rect x="40" y="-10" width="10" height="120" fill="rgba(170, 170, 170, 0)"></rect>
        <rect x="50" y="-10" width="10" height="120" fill="rgba(0, 0, 0, 0.27774193548387094)"></rect>
        <rect x="60" y="-10" width="10" height="120" fill="rgba(170, 170, 170, 0)"></rect>
        <rect x="70" y="-10" width="10" height="120" fill="rgba(0, 0, 0, 0.27774193548387094)"></rect>
        <rect x="80" y="-10" width="10" height="120" fill="rgba(170, 170, 170, 0)"></rect>
        <rect x="90" y="-10" width="10" height="120" fill="rgba(0, 0, 0, 0.27774193548387094)"></rect>
        <rect x="100" y="-10" width="10" height="120" fill="rgba(170, 170, 170, 0)"></rect>
        <rect x="110" y="-10" width="10" height="120" fill="rgba(170, 170, 170, 0)"></rect>
      </g>
      <animateTransform attributeName="transform" type="translate" values="0 0;26 0" keyTimes="0;1" dur="0.9900990099009901s" repeatCount="indefinite"></animateTransform>
    </g>
  </pattern>
</defs>
<rect rx="5.28" ry="5.28" x="6" y="43.5" stroke="rgba(0, 0, 0, 0.5461290322580645)" stroke-width="1.5" width="88" height="13" fill="url(#ldio-okamqada9as-pattern)"></rect>
<!-- [ldio] generated by https://loading.io/ --></svg>