<?xml version="1.0" encoding="UTF-8" standalone="no"?>
<!-- Created with Inkscape (http://www.inkscape.org/) -->

<svg
   xmlns:dc="http://purl.org/dc/elements/1.1/"
   xmlns:cc="http://creativecommons.org/ns#"
   xmlns:rdf="http://www.w3.org/1999/02/22-rdf-syntax-ns#"
   xmlns:svg="http://www.w3.org/2000/svg"
   xmlns="http://www.w3.org/2000/svg"
   xmlns:sodipodi="http://sodipodi.sourceforge.net/DTD/sodipodi-0.dtd"
   xmlns:inkscape="http://www.inkscape.org/namespaces/inkscape"
   width="41.687046mm"
   height="41.696144mm"
   viewBox="0 0 147.71001 147.74224"
   id="svg2"
   version="1.1"
   inkscape:version="0.91 r13725"
   sodipodi:docname="menu.svg">
  <defs
     id="defs4" />
  <sodipodi:namedview
     id="base"
     pagecolor="#ffffff"
     bordercolor="#666666"
     borderopacity="1.0"
     inkscape:pageopacity="0.0"
     inkscape:pageshadow="2"
     inkscape:zoom="1.979899"
     inkscape:cx="-28.885527"
     inkscape:cy="-12.779627"
     inkscape:document-units="px"
     inkscape:current-layer="g3347"
     showgrid="false"
     fit-margin-top="0"
     fit-margin-left="0"
     fit-margin-right="0"
     fit-margin-bottom="0"
     inkscape:window-width="1920"
     inkscape:window-height="1031"
     inkscape:window-x="0"
     inkscape:window-y="25"
     inkscape:window-maximized="1" />
  <metadata
     id="metadata7">
    <rdf:RDF>
      <cc:Work
         rdf:about="">
        <dc:format>image/svg+xml</dc:format>
        <dc:type
           rdf:resource="http://purl.org/dc/dcmitype/StillImage" />
        <dc:title></dc:title>
      </cc:Work>
    </rdf:RDF>
  </metadata>
  <g
     inkscape:label="Layer 1"
     inkscape:groupmode="layer"
     id="layer1"
     transform="translate(-27.840208,-18.6925)">
    <g
       id="g3347"
       transform="translate(28.789352,-14.142136)">
      <path
         style="fill:#ffffff;fill-opacity:0.8"
         d="m 68.837915,180.52948 c -3.6943,-0.30943 -4.73127,-0.41699 -6.56275,-0.68073 -13.47843,-1.94093 -25.96885,-7.51823 -36.73827,-16.4046 -2.2659,-1.86971 -7.5478,-7.15777 -9.44398,-9.455 -9.55145,-11.5716 -15.12042002,-24.83375 -16.75726002,-39.90634 -0.37991998,-3.49844 -0.37968998,-11.29107 4.4e-4,-14.785711 1.16613,-10.72048 4.25282002,-20.34965 9.38800002,-29.286572 7.47055,-13.001265 18.78814,-23.550184 32.12245,-29.940744 8.02487,-3.845977 16.05662,-6.068479 25.4265,-7.035878 2.89958,-0.299369 10.95223,-0.252681 14.03134,0.08135 15.51544,1.683168 29.133105,7.535246 40.832575,17.547458 2.28964,1.959439 6.65433,6.395719 8.58719,8.728053 8.79745,10.615624 14.41411,23.215583 16.34648,36.670413 0.57158,3.979831 0.69023,5.806831 0.69023,10.628781 0,4.82194 -0.11865,6.64894 -0.69023,10.62878 -1.93112,13.44607 -7.51616,25.97971 -16.34049,36.67041 -1.9229,2.32959 -7.18983,7.59653 -9.51943,9.51943 -11.52285,9.5112 -24.913895,15.14841 -39.755455,16.73577 -2.18908,0.23414 -9.95157,0.42465 -11.61734,0.28513 z m 7.38329,-6.40437 c 9.55436,-0.50106 18.38523,-2.79736 26.687605,-6.93962 C 130.17372,153.58236 144.9608,123.71122 139.216,93.841909 135.79434,76.051459 125.16003,60.206436 109.93726,50.216852 95.240735,40.5726 77.388145,37.053407 60.063485,40.38548 c -23.95137,4.606596 -43.70232,22.024863 -51.31843,45.257469 -6.40475,19.537421 -3.57187,40.901831 7.70218,58.086731 11.74288,17.89952 31.49784,29.28239 52.73768,30.38763 3.37527,0.17564 3.82642,0.17614 7.03629,0.008 z m -47.89313,-54.97809 c -4.95083,-0.98425 -8.78714,-4.55858 -10.05048,-9.36413 -0.44606,-1.69675 -0.44458,-4.49972 0.003,-6.18586 0.9729,-3.662911 3.3691,-6.595041 6.72796,-8.232741 2.09737,-1.02262 3.16719,-1.25915 5.6578,-1.25091 1.76233,0.006 2.21588,0.061 3.36563,0.40941 3.59671,1.08986 6.23053,3.31141 7.92692,6.686101 1.51063,3.00517 1.628,7.07538 0.29637,10.27744 -1.14706,2.75822 -3.4388,5.22302 -6.11104,6.57251 -2.14018,1.0808 -5.50047,1.54861 -7.81644,1.08818 z m 42.01858,-0.0759 c -3.91676,-0.82798 -7.41276,-3.6244 -8.99014,-7.19112 -0.79248,-1.79194 -1.03428,-3.00532 -1.03428,-5.19002 0,-2.1847 0.2418,-3.39808 1.03428,-5.19002 1.49966,-3.391001 4.70916,-6.068971 8.53752,-7.123611 1.51557,-0.41751 4.6775,-0.38304 6.2613,0.0683 4.74676,1.35257 8.16253,4.99351 9.14343,9.746161 1.04038,5.04086 -1.1346,10.21696 -5.51469,13.12415 -2.65456,1.7619 -6.24754,2.43051 -9.43742,1.7562 z m 42.907625,0.1385 c -4.8797,-0.88182 -8.83905,-4.43462 -10.2029,-9.15526 -0.49525,-1.71418 -0.49123,-5.02762 0.008,-6.75906 0.53585,-1.85772 1.58308,-3.707721 2.88165,-5.090581 1.81277,-1.93044 3.4311,-2.94908 5.84957,-3.68191 1.14975,-0.3484 1.6033,-0.40357 3.36563,-0.40941 1.44294,-0.005 2.34474,0.0694 3.09293,0.25427 1.48176,0.36621 3.89056,1.58518 5.07504,2.56822 1.95836,1.62531 3.56282,4.157251 4.22107,6.661161 0.44422,1.68975 0.44422,4.49611 0,6.18586 -0.65825,2.50391 -2.26271,5.03585 -4.22107,6.66116 -1.14455,0.94989 -3.55571,2.17296 -4.9996,2.53606 -1.17548,0.29559 -3.99783,0.42334 -5.0705,0.22949 z"
         id="path3351"
         inkscape:connector-curvature="0" />
    </g>
  </g>
</svg>
