<?xml version="1.0" encoding="UTF-8" standalone="no"?>
<!-- Created with Inkscape (http://www.inkscape.org/) -->

<svg
   xmlns:dc="http://purl.org/dc/elements/1.1/"
   xmlns:cc="http://creativecommons.org/ns#"
   xmlns:rdf="http://www.w3.org/1999/02/22-rdf-syntax-ns#"
   xmlns:svg="http://www.w3.org/2000/svg"
   xmlns="http://www.w3.org/2000/svg"
   xmlns:sodipodi="http://sodipodi.sourceforge.net/DTD/sodipodi-0.dtd"
   xmlns:inkscape="http://www.inkscape.org/namespaces/inkscape"
   width="16.122227mm"
   height="16.122227mm"
   viewBox="0 0 57.126 57.126"
   id="svg3698"
   version="1.1"
   inkscape:version="0.91 r13725"
   sodipodi:docname="w.svg">
  <defs
     id="defs3700" />
  <sodipodi:namedview
     id="base"
     pagecolor="#ffffff"
     bordercolor="#666666"
     borderopacity="1.0"
     inkscape:pageopacity="0.0"
     inkscape:pageshadow="2"
     inkscape:zoom="5.6"
     inkscape:cx="52.673949"
     inkscape:cy="-9.9725939"
     inkscape:document-units="px"
     inkscape:current-layer="layer1"
     showgrid="false"
     fit-margin-top="0"
     fit-margin-left="0"
     fit-margin-right="0"
     fit-margin-bottom="0"
     inkscape:window-width="1680"
     inkscape:window-height="1001"
     inkscape:window-x="0"
     inkscape:window-y="25"
     inkscape:window-maximized="1" />
  <metadata
     id="metadata3703">
    <rdf:RDF>
      <cc:Work
         rdf:about="">
        <dc:format>image/svg+xml</dc:format>
        <dc:type
           rdf:resource="http://purl.org/dc/dcmitype/StillImage" />
        <dc:title></dc:title>
      </cc:Work>
    </rdf:RDF>
  </metadata>
  <g
     inkscape:label="Layer 1"
     inkscape:groupmode="layer"
     id="layer1"
     transform="translate(485.70588,-69.5135)">
    <circle
       id="circle2169"
       style="fill:#fccc0a;fill-opacity:1"
       r="28.563"
       cy="98.0765"
       cx="-457.14288" />
    <g
       id="g2171"
       transform="translate(-693.58787,60.626487)">
      <path
         inkscape:connector-curvature="0"
         id="path2173"
         d="m 218.113,23.492 6.4,0 c 3.68,15.72 4.041,17.72 4.561,21 l 0.08,0 c 0.52,-3 0.959,-5.92 4,-21 l 6.359,0 c 3.359,15.76 3.641,17.28 4.279,21 l 0.08,0 c 0.48,-2.721 0.961,-5.2 4.68,-21 l 6.08,0 -8.08,28.72 -5.76,0 c -2.959,-14.08 -3.479,-16.88 -4.439,-22.4 l -0.08,0 c -0.879,5.52 -1.359,7.6 -4.439,22.4 l -5.6,0 -8.121,-28.72 z" />
    </g>
  </g>
</svg>
